<svg width="26" height="24" viewBox="0 0 26 24" fill="none" xmlns="http://www.w3.org/2000/svg">
<circle cx="12" cy="12" r="10.5" fill="#57CC99" stroke="#C7F9CC" stroke-width="3"/>
<path fill-rule="evenodd" clip-rule="evenodd" d="M24.9805 7.67426L24.9677 7.67953C24.9562 7.68431 24.9375 7.69209 24.9119 7.70288C24.8608 7.72446 24.7823 7.75803 24.6788 7.80351C24.4717 7.89451 24.1651 8.03303 23.7785 8.21844C23.0046 8.58956 21.9139 9.14673 20.6615 9.88442C18.1442 11.3673 15.0343 13.5443 12.523 16.3588L12.1732 16.7507C11.8056 17.1627 11.1736 17.1988 10.7615 16.8312L10.3695 16.4816C8.52981 14.8409 7.21453 13.2446 6.43029 12.2929C6.32135 12.1607 6.22266 12.0409 6.13423 11.9352C5.59374 11.2889 5.67946 10.3269 6.3257 9.78642C6.97194 9.24593 7.93397 9.33165 8.47446 9.97789C8.57232 10.0949 8.67785 10.2228 8.79135 10.3603C9.25968 10.9279 9.86367 11.6599 10.6248 12.4705C11.0028 12.8732 11.6362 12.8694 12.0381 12.4906C14.4136 10.2516 16.9954 8.50319 19.1131 7.25572C20.4524 6.46682 21.6214 5.86939 22.4593 5.46756C22.8786 5.26649 23.4513 5.0105 23.4513 5.0105L23.8329 4.84748C24.6135 4.53058 25.5032 4.90649 25.8201 5.68708C26.1369 6.46739 25.7614 7.35672 24.9814 7.67392L24.9805 7.67426Z" fill="white"/>
</svg>
