<svg width="24" height="24" viewBox="0 0 24 24" fill="none" xmlns="http://www.w3.org/2000/svg">
<rect width="24" height="24" rx="12" fill="#57CC99"/>
<path fill-rule="evenodd" clip-rule="evenodd" d="M18.3387 8.7638L18.3298 8.76876C18.3218 8.77325 18.3088 8.78057 18.291 8.79071C18.2555 8.811 18.2009 8.84257 18.129 8.88534C17.9852 8.9709 17.7722 9.10116 17.5037 9.2755C16.9661 9.62447 16.2084 10.1484 15.3384 10.8421C13.5897 12.2364 11.4294 14.2835 9.68487 16.93L9.66168 16.9652C9.32238 17.4799 8.58216 17.5203 8.18891 17.0455V17.0455C6.91096 15.5027 5.99729 14.0017 5.45251 13.1068C5.37683 12.9825 5.30827 12.8698 5.24684 12.7704C4.87139 12.1628 4.93094 11.2581 5.37985 10.7499C5.82877 10.2417 6.49706 10.3223 6.87251 10.9299C6.9405 11.04 7.01381 11.1602 7.09265 11.2896C7.35515 11.7202 7.67901 12.2515 8.07205 12.8411C8.44517 13.4008 9.25404 13.3998 9.67922 12.8785C11.2355 10.9706 12.8896 9.4652 14.2628 8.37024C15.1932 7.62842 16.0052 7.06665 16.5873 6.6888C16.8785 6.49973 17.2764 6.25901 17.2764 6.25901L17.5415 6.10572C18.0837 5.80774 18.7018 6.16121 18.9219 6.89522C19.142 7.62896 18.8811 8.46521 18.3392 8.76348L18.3387 8.7638Z" fill="white"/>
</svg>
