<svg width="24" height="24" viewBox="0 0 24 24" fill="none" xmlns="http://www.w3.org/2000/svg">
<rect width="24" height="24" rx="12" fill="#22577A"/>
<path d="M5.39063 13.5341C4.97017 13.5341 4.60938 13.3835 4.30824 13.0824C4.00711 12.7813 3.85654 12.4205 3.85654 12C3.85654 11.5795 4.00711 11.2188 4.30824 10.9176C4.60938 10.6165 4.97017 10.4659 5.39063 10.4659C5.81108 10.4659 6.17188 10.6165 6.47301 10.9176C6.77415 11.2188 6.92472 11.5795 6.92472 12C6.92472 12.2784 6.8537 12.5341 6.71165 12.767C6.57529 13 6.39063 13.1875 6.15767 13.3295C5.9304 13.4659 5.67472 13.5341 5.39063 13.5341Z" fill="white"/>
<path d="M12 13.5341C11.5795 13.5341 11.2188 13.3835 10.9176 13.0824C10.6165 12.7813 10.4659 12.4205 10.4659 12C10.4659 11.5795 10.6165 11.2188 10.9176 10.9176C11.2188 10.6165 11.5795 10.4659 12 10.4659C12.4205 10.4659 12.7813 10.6165 13.0824 10.9176C13.3835 11.2188 13.5341 11.5795 13.5341 12C13.5341 12.2784 13.4631 12.5341 13.321 12.767C13.1847 13 13 13.1875 12.767 13.3295C12.5398 13.4659 12.2841 13.5341 12 13.5341Z" fill="white"/>
<path d="M18.6094 13.5341C18.1889 13.5341 17.8281 13.3835 17.527 13.0824C17.2259 12.7813 17.0753 12.4205 17.0753 12C17.0753 11.5795 17.2259 11.2188 17.527 10.9176C17.8281 10.6165 18.1889 10.4659 18.6094 10.4659C19.0298 10.4659 19.3906 10.6165 19.6918 10.9176C19.9929 11.2188 20.1435 11.5795 20.1435 12C20.1435 12.2784 20.0724 12.5341 19.9304 12.767C19.794 13 19.6094 13.1875 19.3764 13.3295C19.1492 13.4659 18.8935 13.5341 18.6094 13.5341Z" fill="white"/>
</svg>
