<svg width="14" height="14" viewBox="0 0 14 14" fill="none" xmlns="http://www.w3.org/2000/svg">
<path d="M7.8344 3.5C8.08161 3.70959 8.32699 3.91826 8.55571 4.14829C8.5997 4.19236 8.64369 4.23644 8.68902 4.28186C8.73472 4.32798 8.78041 4.3741 8.82749 4.42162C8.89972 4.49412 8.89972 4.49412 8.97341 4.56809C9.12563 4.72096 9.27761 4.87406 9.42959 5.02717C9.5334 5.1315 9.63722 5.23582 9.74106 5.34012C9.99422 5.59447 10.2472 5.84903 10.5 6.1037C10.2013 6.45867 9.89097 6.79952 9.57203 7.13631C9.49468 7.21816 9.49468 7.21816 9.41577 7.30166C8.9368 7.80715 8.4529 8.30782 7.96718 8.80679C7.64273 9.1403 7.32017 9.47528 7.00184 9.81466C5.47573 11.4397 4.1352 12.6965 1.90369 13.184C1.60785 13.25 1.3321 13.3534 1.0537 13.473C0.8714 13.5232 0.751066 13.4969 0.570634 13.4475C0.252143 12.4821 1.09005 10.7883 1.50533 9.94272C2.18818 8.67712 3.44032 7.66448 4.47874 6.69829C4.84996 6.35242 5.2142 5.99949 5.57823 5.64606C6.32319 4.92305 7.07578 4.20863 7.8344 3.5Z" fill="#FEFEFE"/>
<path d="M11.303 0.515519C11.4232 0.596211 11.4232 0.596211 11.5385 0.710758C11.5821 0.753412 11.6257 0.796066 11.6707 0.840012C11.7167 0.886735 11.7628 0.933458 11.8103 0.981597C11.8583 1.02926 11.9062 1.07693 11.9556 1.12603C12.0568 1.22701 12.1575 1.32838 12.2579 1.43011C12.4119 1.58582 12.5675 1.7398 12.7233 1.89367C12.8214 1.99194 12.9193 2.09031 13.0171 2.18878C13.0639 2.23487 13.1106 2.28096 13.1587 2.32845C13.2013 2.37209 13.244 2.41572 13.2879 2.46068C13.3446 2.51775 13.3446 2.51775 13.4024 2.57598C13.5092 2.73521 13.5148 2.81938 13.4831 3.00776C13.3885 3.13984 13.3885 3.13984 13.2544 3.27191C13.2045 3.32178 13.1546 3.37165 13.1032 3.42304C13.0487 3.47594 12.9942 3.52885 12.9381 3.58336C12.8828 3.63824 12.8275 3.69311 12.7705 3.74965C12.6236 3.89516 12.476 4.03996 12.3281 4.18446C12.1772 4.33217 12.0273 4.48077 11.8772 4.6293C11.5828 4.92036 11.2875 5.21051 10.9915 5.5C10.6658 5.2277 10.3623 4.94117 10.0633 4.63988C9.99579 4.57222 9.99579 4.57222 9.92691 4.50319C9.78463 4.36053 9.64257 4.21764 9.50051 4.07475C9.40348 3.97738 9.30644 3.88003 9.20939 3.78269C8.97276 3.54531 8.73631 3.30776 8.5 3.07007C8.9049 2.58712 9.34604 2.14311 9.78965 1.69594C9.88802 1.5965 9.98605 1.49673 10.0838 1.39664C10.2254 1.25153 10.3681 1.10746 10.511 0.963587C10.5545 0.918618 10.5981 0.873648 10.643 0.827316C10.6841 0.786312 10.7253 0.745308 10.7677 0.703061C10.8035 0.666743 10.8393 0.630425 10.8762 0.593007C11.0312 0.488856 11.1196 0.487478 11.303 0.515519Z" fill="#FDFEFE"/>
</svg>
