<svg width="18" height="4" viewBox="0 0 18 4" fill="none" xmlns="http://www.w3.org/2000/svg">
<path d="M2.39063 3.53409C1.97017 3.53409 1.60938 3.38352 1.30824 3.08239C1.00711 2.78125 0.856537 2.42045 0.856537 2C0.856537 1.57955 1.00711 1.21875 1.30824 0.917614C1.60938 0.616477 1.97017 0.465909 2.39063 0.465909C2.81108 0.465909 3.17188 0.616477 3.47301 0.917614C3.77415 1.21875 3.92472 1.57955 3.92472 2C3.92472 2.27841 3.8537 2.53409 3.71165 2.76705C3.57529 3 3.39063 3.1875 3.15767 3.32955C2.9304 3.46591 2.67472 3.53409 2.39063 3.53409Z" fill="white"/>
<path d="M9 3.53409C8.57955 3.53409 8.21875 3.38352 7.91762 3.08239C7.61648 2.78125 7.46591 2.42045 7.46591 2C7.46591 1.57955 7.61648 1.21875 7.91762 0.917614C8.21875 0.616477 8.57955 0.465909 9 0.465909C9.42046 0.465909 9.78125 0.616477 10.0824 0.917614C10.3835 1.21875 10.5341 1.57955 10.5341 2C10.5341 2.27841 10.4631 2.53409 10.321 2.76705C10.1847 3 10 3.1875 9.76705 3.32955C9.53977 3.46591 9.28409 3.53409 9 3.53409Z" fill="white"/>
<path d="M15.6094 3.53409C15.1889 3.53409 14.8281 3.38352 14.527 3.08239C14.2259 2.78125 14.0753 2.42045 14.0753 2C14.0753 1.57955 14.2259 1.21875 14.527 0.917614C14.8281 0.616477 15.1889 0.465909 15.6094 0.465909C16.0298 0.465909 16.3906 0.616477 16.6918 0.917614C16.9929 1.21875 17.1435 1.57955 17.1435 2C17.1435 2.27841 17.0724 2.53409 16.9304 2.76705C16.794 3 16.6094 3.1875 16.3764 3.32955C16.1491 3.46591 15.8935 3.53409 15.6094 3.53409Z" fill="white"/>
</svg>
