<svg width="24" height="24" viewBox="0 0 24 24" fill="none" xmlns="http://www.w3.org/2000/svg">
<rect width="24" height="24" rx="12" fill="#38A3A5"/>
<path d="M12.8344 8.5C13.0816 8.70959 13.327 8.91826 13.5557 9.14829C13.5997 9.19236 13.6437 9.23644 13.689 9.28186C13.7347 9.32798 13.7804 9.3741 13.8275 9.42162C13.8997 9.49412 13.8997 9.49412 13.9734 9.56809C14.1256 9.72096 14.2776 9.87406 14.4296 10.0272C14.5334 10.1315 14.6372 10.2358 14.7411 10.3401C14.9942 10.5945 15.2472 10.849 15.5 11.1037C15.2013 11.4587 14.891 11.7995 14.572 12.1363C14.4947 12.2182 14.4947 12.2182 14.4158 12.3017C13.9368 12.8071 13.4529 13.3078 12.9672 13.8068C12.6427 14.1403 12.3202 14.4753 12.0018 14.8147C10.4757 16.4397 9.1352 17.6965 6.90369 18.184C6.60785 18.25 6.3321 18.3534 6.0537 18.473C5.8714 18.5232 5.75107 18.4969 5.57063 18.4475C5.25214 17.4821 6.09005 15.7883 6.50533 14.9427C7.18818 13.6771 8.44032 12.6645 9.47874 11.6983C9.84996 11.3524 10.2142 10.9995 10.5782 10.6461C11.3232 9.92305 12.0758 9.20863 12.8344 8.5Z" fill="#FEFEFE"/>
<path d="M16.303 5.51552C16.4232 5.59621 16.4232 5.59621 16.5385 5.71076C16.5821 5.75341 16.6257 5.79607 16.6707 5.84001C16.7167 5.88674 16.7628 5.93346 16.8103 5.9816C16.8583 6.02926 16.9062 6.07693 16.9556 6.12603C17.0568 6.22701 17.1575 6.32838 17.2579 6.43011C17.4119 6.58582 17.5675 6.7398 17.7233 6.89367C17.8214 6.99194 17.9193 7.09031 18.0171 7.18878C18.0639 7.23487 18.1106 7.28096 18.1587 7.32845C18.2013 7.37209 18.244 7.41572 18.2879 7.46068C18.3446 7.51775 18.3446 7.51775 18.4024 7.57598C18.5092 7.73521 18.5148 7.81938 18.4831 8.00776C18.3885 8.13984 18.3885 8.13984 18.2544 8.27191C18.2045 8.32178 18.1546 8.37165 18.1032 8.42304C18.0487 8.47594 17.9942 8.52885 17.9381 8.58336C17.8828 8.63824 17.8275 8.69311 17.7705 8.74965C17.6236 8.89516 17.476 9.03996 17.3281 9.18446C17.1772 9.33217 17.0273 9.48077 16.8772 9.6293C16.5828 9.92036 16.2875 10.2105 15.9915 10.5C15.6658 10.2277 15.3623 9.94117 15.0633 9.63988C14.9958 9.57222 14.9958 9.57222 14.9269 9.50319C14.7846 9.36053 14.6426 9.21764 14.5005 9.07475C14.4035 8.97738 14.3064 8.88003 14.2094 8.78269C13.9728 8.54531 13.7363 8.30776 13.5 8.07007C13.9049 7.58712 14.346 7.14311 14.7896 6.69594C14.888 6.5965 14.9861 6.49673 15.0838 6.39664C15.2254 6.25153 15.3681 6.10746 15.511 5.96359C15.5545 5.91862 15.5981 5.87365 15.643 5.82732C15.6841 5.78631 15.7253 5.74531 15.7677 5.70306C15.8035 5.66674 15.8393 5.63043 15.8762 5.59301C16.0312 5.48886 16.1196 5.48748 16.303 5.51552Z" fill="#FDFEFE"/>
</svg>
