<svg width="283" height="45" viewBox="0 0 283 45" fill="none" xmlns="http://www.w3.org/2000/svg">
<path d="M12.5067 25.3105C11.7477 25.3105 11.2302 24.9655 10.9542 24.2755L2.05316 0.849998C2.23716 0.757998 2.45566 0.688998 2.70866 0.642999C2.96166 0.573998 3.19166 0.539498 3.39866 0.539498C4.04266 0.539498 4.58316 0.700498 5.02016 1.0225C5.48016 1.3215 5.81366 1.747 6.02066 2.299L12.3342 19.9285L11.7132 21.688L11.9892 21.7915L18.9927 2.299C19.1997 1.747 19.5332 1.3215 19.9932 1.0225C20.4532 0.700498 21.0052 0.539498 21.6492 0.539498C22.0402 0.539498 22.4887 0.642998 22.9947 0.849998L14.0937 24.2755C13.9787 24.5975 13.7832 24.8505 13.5072 25.0345C13.2312 25.2185 12.8977 25.3105 12.5067 25.3105ZM39.7045 22.7575C39.7045 24.4595 38.7385 25.3105 36.8065 25.3105V23.1025C37.0135 22.8955 37.255 22.585 37.531 22.171L37.393 22.033C36.703 23.022 35.829 23.8155 34.771 24.4135C33.736 25.0115 32.5975 25.3105 31.3555 25.3105C30.1135 25.3105 29.0095 25.046 28.0435 24.517C27.1005 23.988 26.3645 23.252 25.8355 22.309C25.3295 21.366 25.0765 20.308 25.0765 19.135V9.6475C25.0765 8.8885 25.3295 8.3365 25.8355 7.9915C26.3415 7.6235 27.1005 7.4395 28.1125 7.4395V18.997C28.1125 20.101 28.4345 20.9865 29.0785 21.6535C29.7455 22.3205 30.723 22.654 32.011 22.654C32.862 22.654 33.644 22.4815 34.357 22.1365C35.07 21.7685 35.6335 21.2855 36.0475 20.6875C36.4845 20.0665 36.703 19.3995 36.703 18.6865V9.6475C36.703 8.8885 36.9445 8.3365 37.4275 7.9915C37.9335 7.6235 38.6925 7.4395 39.7045 7.4395V22.7575ZM51.459 25.3105C50.056 25.3105 48.8025 25.046 47.6985 24.517C46.5945 23.965 45.732 23.2175 45.111 22.2745C44.49 21.3085 44.1795 20.2275 44.1795 19.0315V13.9255C44.1795 12.7065 44.5015 11.6025 45.1455 10.6135C45.8125 9.6245 46.698 8.854 47.802 8.302C48.929 7.727 50.148 7.4395 51.459 7.4395C52.77 7.4395 53.966 7.7155 55.047 8.2675C56.151 8.8195 57.0135 9.5785 57.6345 10.5445C58.2785 11.5105 58.6005 12.603 58.6005 13.822V16.03C58.6005 16.398 58.4625 16.7085 58.1865 16.9615C57.9105 17.2145 57.577 17.341 57.186 17.341H47.112V18.8935C47.112 20.0665 47.48 21.0095 48.216 21.7225C48.975 22.4355 50.056 22.792 51.459 22.792C52.862 22.792 53.9315 22.4815 54.6675 21.8605C55.4035 21.2395 55.7715 20.4 55.7715 19.342C56.4615 19.296 57.0365 19.434 57.4965 19.756C57.9795 20.055 58.221 20.5035 58.221 21.1015C58.221 21.8375 57.899 22.5275 57.255 23.1715C56.634 23.8155 55.806 24.333 54.771 24.724C53.736 25.115 52.632 25.3105 51.459 25.3105ZM55.806 14.995V13.822C55.806 12.672 55.4035 11.7405 54.5985 11.0275C53.8165 10.2915 52.77 9.9235 51.459 9.9235C50.148 9.9235 49.09 10.2915 48.285 11.0275C47.503 11.7405 47.112 12.672 47.112 13.822V14.995H55.806ZM73.1682 25C72.7082 25 72.3057 24.839 71.9607 24.517C71.6387 24.172 71.4777 23.7695 71.4777 23.3095V3.2305C71.4777 1.4365 72.5587 0.539498 74.7207 0.539498V22.1365H85.3122C86.1172 22.1365 86.7382 22.3895 87.1752 22.8955C87.6122 23.3785 87.8307 24.08 87.8307 25H73.1682ZM95.6339 25.3105C93.6559 25.3105 92.0574 24.7815 90.8384 23.7235C89.6424 22.6655 89.0444 21.274 89.0444 19.549C89.0444 17.801 89.6769 16.398 90.9419 15.34C92.2069 14.259 93.8744 13.7185 95.9444 13.7185C98.1524 13.7185 99.9694 14.5005 101.395 16.0645L101.533 15.9265C101.28 15.6505 100.993 15.363 100.671 15.064V13.615C100.671 12.442 100.303 11.5335 99.5669 10.8895C98.8309 10.2455 97.7844 9.9235 96.4274 9.9235C94.0124 9.9235 92.2874 10.878 91.2524 12.787C90.8844 12.603 90.5739 12.3615 90.3209 12.0625C90.0909 11.7405 89.9759 11.4185 89.9759 11.0965C89.9759 10.4755 90.2864 9.889 90.9074 9.337C91.5284 8.762 92.3449 8.302 93.3569 7.957C94.3919 7.612 95.4729 7.4395 96.5999 7.4395C98.7849 7.4395 100.498 7.98 101.74 9.061C103.005 10.142 103.638 11.637 103.638 13.546V22.999C103.638 23.804 103.408 24.3905 102.948 24.7585C102.488 25.1265 101.763 25.3105 100.774 25.3105V23.689C101.257 23.183 101.522 22.884 101.568 22.792L101.43 22.654C99.9349 24.425 98.0029 25.3105 95.6339 25.3105ZM96.1514 22.93C97.5774 22.93 98.6929 22.631 99.4979 22.033C100.326 21.435 100.74 20.607 100.74 19.549C100.74 18.491 100.337 17.6515 99.5324 17.0305C98.7274 16.4095 97.6234 16.099 96.2204 16.099C94.9094 16.099 93.8744 16.4095 93.1154 17.0305C92.3794 17.6285 92.0114 18.468 92.0114 19.549C92.0114 20.63 92.3679 21.4695 93.0809 22.0675C93.8169 22.6425 94.8404 22.93 96.1514 22.93ZM108.302 2.8855C108.302 1.3215 109.314 0.539498 111.338 0.539498V8.9575C110.993 9.2565 110.752 9.5095 110.614 9.7165L110.717 9.889C111.407 9.153 112.247 8.5665 113.236 8.1295C114.248 7.6695 115.237 7.4395 116.203 7.4395C118.25 7.4395 119.883 7.98 121.102 9.061C122.321 10.142 122.93 11.591 122.93 13.408V19.3075C122.93 20.4575 122.643 21.4925 122.068 22.4125C121.516 23.3325 120.734 24.0455 119.722 24.5515C118.71 25.0575 117.56 25.3105 116.272 25.3105C114.018 25.3105 112.12 24.3215 110.579 22.3435L110.476 22.4815C110.614 22.6885 110.844 22.976 111.166 23.344C111.166 24.011 110.936 24.5055 110.476 24.8275C110.016 25.1495 109.291 25.3105 108.302 25.3105V2.8855ZM115.616 22.654C117.019 22.654 118.089 22.355 118.825 21.757C119.584 21.159 119.963 20.2965 119.963 19.1695V13.546C119.963 12.465 119.584 11.6255 118.825 11.0275C118.066 10.4065 117.008 10.096 115.651 10.096C114.455 10.096 113.431 10.418 112.58 11.062C111.729 11.706 111.304 12.4765 111.304 13.3735V19.342C111.304 20.285 111.718 21.0785 112.546 21.7225C113.374 22.3435 114.397 22.654 115.616 22.654Z" fill="white"/>
<path d="M8.0802 34.2102V33.2727H14.6257V34.2102H11.8813V42H10.8245V34.2102H8.0802ZM17.3358 42.1534C16.9211 42.1534 16.5446 42.0753 16.2066 41.919C15.8685 41.7599 15.6 41.5312 15.4012 41.233C15.2023 40.9318 15.1029 40.5682 15.1029 40.142C15.1029 39.767 15.1767 39.4631 15.3245 39.2301C15.4722 38.9943 15.6696 38.8097 15.9168 38.6761C16.164 38.5426 16.4367 38.4432 16.735 38.3778C17.0361 38.3097 17.3387 38.2557 17.6427 38.2159C18.0404 38.1648 18.3628 38.1264 18.61 38.1009C18.86 38.0724 19.0418 38.0256 19.1554 37.9602C19.2719 37.8949 19.3302 37.7812 19.3302 37.6193V37.5852C19.3302 37.1648 19.2151 36.8381 18.985 36.6051C18.7577 36.3722 18.4125 36.2557 17.9495 36.2557C17.4694 36.2557 17.0929 36.3608 16.8202 36.571C16.5475 36.7812 16.3557 37.0057 16.2449 37.2443L15.2904 36.9034C15.4608 36.5057 15.6881 36.196 15.9722 35.9744C16.2591 35.75 16.5716 35.5937 16.9097 35.5057C17.2506 35.4148 17.5858 35.3693 17.9154 35.3693C18.1256 35.3693 18.3671 35.3949 18.6398 35.446C18.9154 35.4943 19.181 35.5952 19.4367 35.7486C19.6952 35.902 19.9097 36.1335 20.0802 36.4432C20.2506 36.7528 20.3358 37.1676 20.3358 37.6875V42H19.3302V41.1136H19.279C19.2108 41.2557 19.0972 41.4077 18.9381 41.5696C18.779 41.7315 18.5674 41.8693 18.3032 41.983C18.039 42.0966 17.7165 42.1534 17.3358 42.1534ZM17.4892 41.25C17.887 41.25 18.2222 41.1719 18.4949 41.0156C18.7705 40.8594 18.9779 40.6577 19.1171 40.4105C19.2591 40.1634 19.3302 39.9034 19.3302 39.6307V38.7102C19.2875 38.7614 19.1938 38.8082 19.0489 38.8509C18.9069 38.8906 18.7421 38.9261 18.5546 38.9574C18.3699 38.9858 18.1895 39.0114 18.0134 39.0341C17.8401 39.054 17.6995 39.071 17.5915 39.0852C17.3302 39.1193 17.0858 39.1747 16.8586 39.2514C16.6341 39.3253 16.4523 39.4375 16.3131 39.5881C16.1767 39.7358 16.1086 39.9375 16.1086 40.1932C16.1086 40.5426 16.2378 40.8068 16.4964 40.9858C16.7577 41.1619 17.0887 41.25 17.4892 41.25ZM26.9878 36.9205L26.0844 37.1761C26.0276 37.0256 25.9438 36.8793 25.833 36.7372C25.725 36.5923 25.5773 36.473 25.3898 36.3793C25.2023 36.2855 24.9622 36.2386 24.6696 36.2386C24.269 36.2386 23.9352 36.331 23.6682 36.5156C23.404 36.6974 23.2719 36.929 23.2719 37.2102C23.2719 37.4602 23.3628 37.6577 23.5446 37.8026C23.7264 37.9474 24.0105 38.0682 24.3969 38.1648L25.3685 38.4034C25.9537 38.5455 26.3898 38.7628 26.6767 39.0554C26.9636 39.3452 27.1071 39.7187 27.1071 40.1761C27.1071 40.5511 26.9992 40.8864 26.7832 41.1818C26.5702 41.4773 26.2719 41.7102 25.8884 41.8807C25.5048 42.0511 25.0588 42.1364 24.5503 42.1364C23.8827 42.1364 23.3301 41.9915 22.8926 41.7017C22.4551 41.4119 22.1781 40.9886 22.0617 40.4318L23.0162 40.1932C23.1071 40.5455 23.279 40.8097 23.5318 40.9858C23.7875 41.1619 24.1213 41.25 24.5332 41.25C25.002 41.25 25.3742 41.1506 25.6497 40.9517C25.9281 40.75 26.0673 40.5085 26.0673 40.2273C26.0673 40 25.9878 39.8097 25.8287 39.6562C25.6696 39.5 25.4253 39.3835 25.0957 39.3068L24.0048 39.0511C23.4054 38.9091 22.9651 38.6889 22.6838 38.3906C22.4054 38.0895 22.2662 37.7131 22.2662 37.2614C22.2662 36.892 22.3699 36.5653 22.5773 36.2812C22.7875 35.9972 23.073 35.7741 23.4338 35.6122C23.7974 35.4503 24.2094 35.3693 24.6696 35.3693C25.3173 35.3693 25.8259 35.5114 26.1952 35.7955C26.5673 36.0795 26.8315 36.4545 26.9878 36.9205ZM29.7385 39.6136L29.7214 38.3693H29.926L32.7896 35.4545H34.0339L30.9828 38.5398H30.8975L29.7385 39.6136ZM28.801 42V33.2727H29.8066V42H28.801ZM32.96 42L30.4032 38.7614L31.1191 38.0625L34.2385 42H32.96ZM40.1447 36.9205L39.2413 37.1761C39.1844 37.0256 39.1006 36.8793 38.9898 36.7372C38.8819 36.5923 38.7342 36.473 38.5467 36.3793C38.3591 36.2855 38.1191 36.2386 37.8265 36.2386C37.4259 36.2386 37.0921 36.331 36.8251 36.5156C36.5609 36.6974 36.4288 36.929 36.4288 37.2102C36.4288 37.4602 36.5197 37.6577 36.7015 37.8026C36.8833 37.9474 37.1674 38.0682 37.5538 38.1648L38.5253 38.4034C39.1106 38.5455 39.5466 38.7628 39.8336 39.0554C40.1205 39.3452 40.264 39.7187 40.264 40.1761C40.264 40.5511 40.156 40.8864 39.9401 41.1818C39.727 41.4773 39.4288 41.7102 39.0452 41.8807C38.6617 42.0511 38.2157 42.1364 37.7072 42.1364C37.0395 42.1364 36.487 41.9915 36.0495 41.7017C35.612 41.4119 35.335 40.9886 35.2185 40.4318L36.1731 40.1932C36.264 40.5455 36.4359 40.8097 36.6887 40.9858C36.9444 41.1619 37.2782 41.25 37.6901 41.25C38.1589 41.25 38.531 41.1506 38.8066 40.9517C39.085 40.75 39.2242 40.5085 39.2242 40.2273C39.2242 40 39.1447 39.8097 38.9856 39.6562C38.8265 39.5 38.5822 39.3835 38.2526 39.3068L37.1617 39.0511C36.5623 38.9091 36.1219 38.6889 35.8407 38.3906C35.5623 38.0895 35.4231 37.7131 35.4231 37.2614C35.4231 36.892 35.5268 36.5653 35.7341 36.2812C35.9444 35.9972 36.2299 35.7741 36.5907 35.6122C36.9543 35.4503 37.3663 35.3693 37.8265 35.3693C38.4742 35.3693 38.9827 35.5114 39.352 35.7955C39.7242 36.0795 39.9884 36.4545 40.1447 36.9205ZM45.6492 33.2727H46.9106L49.8765 40.517H49.9787L52.9446 33.2727H54.206V42H53.2174V35.3693H53.1321L50.4049 42H49.4503L46.7231 35.3693H46.6378V42H45.6492V33.2727ZM58.2947 42.1534C57.88 42.1534 57.5036 42.0753 57.1655 41.919C56.8274 41.7599 56.5589 41.5312 56.3601 41.233C56.1612 40.9318 56.0618 40.5682 56.0618 40.142C56.0618 39.767 56.1357 39.4631 56.2834 39.2301C56.4311 38.9943 56.6286 38.8097 56.8757 38.6761C57.1229 38.5426 57.3956 38.4432 57.6939 38.3778C57.995 38.3097 58.2976 38.2557 58.6016 38.2159C58.9993 38.1648 59.3217 38.1264 59.5689 38.1009C59.8189 38.0724 60.0007 38.0256 60.1143 37.9602C60.2308 37.8949 60.2891 37.7812 60.2891 37.6193V37.5852C60.2891 37.1648 60.174 36.8381 59.9439 36.6051C59.7166 36.3722 59.3715 36.2557 58.9084 36.2557C58.4283 36.2557 58.0518 36.3608 57.7791 36.571C57.5064 36.7812 57.3146 37.0057 57.2038 37.2443L56.2493 36.9034C56.4197 36.5057 56.647 36.196 56.9311 35.9744C57.218 35.75 57.5305 35.5937 57.8686 35.5057C58.2095 35.4148 58.5447 35.3693 58.8743 35.3693C59.0845 35.3693 59.326 35.3949 59.5987 35.446C59.8743 35.4943 60.1399 35.5952 60.3956 35.7486C60.6541 35.902 60.8686 36.1335 61.0391 36.4432C61.2095 36.7528 61.2947 37.1676 61.2947 37.6875V42H60.2891V41.1136H60.2379C60.1697 41.2557 60.0561 41.4077 59.897 41.5696C59.7379 41.7315 59.5263 41.8693 59.2621 41.983C58.9979 42.0966 58.6754 42.1534 58.2947 42.1534ZM58.4482 41.25C58.8459 41.25 59.1811 41.1719 59.4538 41.0156C59.7294 40.8594 59.9368 40.6577 60.076 40.4105C60.218 40.1634 60.2891 39.9034 60.2891 39.6307V38.7102C60.2465 38.7614 60.1527 38.8082 60.0078 38.8509C59.8658 38.8906 59.701 38.9261 59.5135 38.9574C59.3288 38.9858 59.1484 39.0114 58.9723 39.0341C58.799 39.054 58.6584 39.071 58.5504 39.0852C58.2891 39.1193 58.0447 39.1747 57.8175 39.2514C57.593 39.3253 57.4112 39.4375 57.272 39.5881C57.1357 39.7358 57.0675 39.9375 57.0675 40.1932C57.0675 40.5426 57.1967 40.8068 57.4553 40.9858C57.7166 41.1619 58.0476 41.25 58.4482 41.25ZM64.316 38.0625V42H63.3103V35.4545H64.2819V36.4773H64.3671C64.5206 36.1449 64.7535 35.8778 65.066 35.6761C65.3785 35.4716 65.7819 35.3693 66.2762 35.3693C66.7194 35.3693 67.1072 35.4602 67.4396 35.642C67.772 35.821 68.0305 36.0938 68.2152 36.4602C68.3998 36.8239 68.4921 37.2841 68.4921 37.8409V42H67.4865V37.9091C67.4865 37.3949 67.3529 36.9943 67.0859 36.7074C66.8189 36.4176 66.4524 36.2727 65.9865 36.2727C65.6654 36.2727 65.3785 36.3423 65.1257 36.4815C64.8757 36.6207 64.6782 36.8239 64.5333 37.0909C64.3885 37.358 64.316 37.6818 64.316 38.0625ZM72.436 42.1534C72.0212 42.1534 71.6448 42.0753 71.3067 41.919C70.9687 41.7599 70.7002 41.5312 70.5013 41.233C70.3025 40.9318 70.203 40.5682 70.203 40.142C70.203 39.767 70.2769 39.4631 70.4246 39.2301C70.5724 38.9943 70.7698 38.8097 71.017 38.6761C71.2641 38.5426 71.5368 38.4432 71.8351 38.3778C72.1363 38.3097 72.4388 38.2557 72.7428 38.2159C73.1405 38.1648 73.463 38.1264 73.7101 38.1009C73.9601 38.0724 74.142 38.0256 74.2556 37.9602C74.3721 37.8949 74.4303 37.7812 74.4303 37.6193V37.5852C74.4303 37.1648 74.3153 36.8381 74.0851 36.6051C73.8579 36.3722 73.5127 36.2557 73.0496 36.2557C72.5695 36.2557 72.1931 36.3608 71.9204 36.571C71.6476 36.7812 71.4559 37.0057 71.3451 37.2443L70.3905 36.9034C70.561 36.5057 70.7883 36.196 71.0724 35.9744C71.3593 35.75 71.6718 35.5937 72.0099 35.5057C72.3508 35.4148 72.686 35.3693 73.0155 35.3693C73.2258 35.3693 73.4672 35.3949 73.74 35.446C74.0155 35.4943 74.2812 35.5952 74.5368 35.7486C74.7954 35.902 75.0099 36.1335 75.1803 36.4432C75.3508 36.7528 75.436 37.1676 75.436 37.6875V42H74.4303V41.1136H74.3792C74.311 41.2557 74.1974 41.4077 74.0383 41.5696C73.8792 41.7315 73.6675 41.8693 73.4033 41.983C73.1391 42.0966 72.8167 42.1534 72.436 42.1534ZM72.5894 41.25C72.9871 41.25 73.3224 41.1719 73.5951 41.0156C73.8707 40.8594 74.078 40.6577 74.2172 40.4105C74.3593 40.1634 74.4303 39.9034 74.4303 39.6307V38.7102C74.3877 38.7614 74.294 38.8082 74.1491 38.8509C74.007 38.8906 73.8422 38.9261 73.6547 38.9574C73.4701 38.9858 73.2897 39.0114 73.1136 39.0341C72.9403 39.054 72.7996 39.071 72.6917 39.0852C72.4303 39.1193 72.186 39.1747 71.9587 39.2514C71.7343 39.3253 71.5525 39.4375 71.4133 39.5881C71.2769 39.7358 71.2087 39.9375 71.2087 40.1932C71.2087 40.5426 71.338 40.8068 71.5965 40.9858C71.8579 41.1619 72.1888 41.25 72.5894 41.25ZM80.0936 44.5909C79.6078 44.5909 79.1902 44.5284 78.8408 44.4034C78.4914 44.2812 78.2002 44.1193 77.9672 43.9176C77.7371 43.7188 77.5539 43.5057 77.4175 43.2784L78.2186 42.7159C78.3095 42.8352 78.4246 42.9716 78.5638 43.125C78.703 43.2812 78.8933 43.4162 79.1348 43.5298C79.3791 43.6463 79.6987 43.7045 80.0936 43.7045C80.622 43.7045 81.0581 43.5767 81.4019 43.321C81.7456 43.0653 81.9175 42.6648 81.9175 42.1193V40.7898H81.8323C81.7584 40.9091 81.6533 41.0568 81.5169 41.233C81.3834 41.4062 81.1902 41.5611 80.9374 41.6974C80.6874 41.831 80.3493 41.8977 79.9232 41.8977C79.3948 41.8977 78.9203 41.7727 78.4999 41.5227C78.0823 41.2727 77.7513 40.9091 77.507 40.4318C77.2655 39.9545 77.1448 39.375 77.1448 38.6932C77.1448 38.0227 77.2627 37.4389 77.4985 36.9418C77.7343 36.4418 78.0624 36.0554 78.4828 35.7827C78.9033 35.5071 79.3891 35.3693 79.9402 35.3693C80.3664 35.3693 80.7044 35.4403 80.9544 35.5824C81.2073 35.7216 81.4004 35.8807 81.534 36.0597C81.6703 36.2358 81.7754 36.3807 81.8493 36.4943H81.9516V35.4545H82.9232V42.1875C82.9232 42.75 82.7953 43.2074 82.5397 43.5597C82.2868 43.9148 81.9459 44.1747 81.5169 44.3395C81.0908 44.5071 80.6164 44.5909 80.0936 44.5909ZM80.0595 40.9943C80.4629 40.9943 80.8039 40.902 81.0823 40.7173C81.3607 40.5327 81.5723 40.267 81.7172 39.9205C81.8621 39.5739 81.9345 39.1591 81.9345 38.6761C81.9345 38.2045 81.8635 37.7884 81.7215 37.4276C81.5794 37.0668 81.3692 36.7841 81.0908 36.5795C80.8124 36.375 80.4686 36.2727 80.0595 36.2727C79.6334 36.2727 79.2783 36.3807 78.9942 36.5966C78.7129 36.8125 78.5013 37.1023 78.3593 37.4659C78.22 37.8295 78.1504 38.233 78.1504 38.6761C78.1504 39.1307 78.2215 39.5327 78.3635 39.8821C78.5084 40.2287 78.7215 40.5014 79.0027 40.7003C79.2868 40.8963 79.6391 40.9943 80.0595 40.9943ZM87.6884 42.1364C87.0577 42.1364 86.5137 41.9972 86.0563 41.7188C85.6018 41.4375 85.2509 41.0455 85.0037 40.5426C84.7594 40.0369 84.6373 39.4489 84.6373 38.7784C84.6373 38.108 84.7594 37.517 85.0037 37.0057C85.2509 36.4915 85.5947 36.0909 86.035 35.804C86.4782 35.5142 86.9952 35.3693 87.5861 35.3693C87.927 35.3693 88.2637 35.4261 88.5961 35.5398C88.9285 35.6534 89.231 35.8381 89.5037 36.0938C89.7765 36.3466 89.9938 36.6818 90.1557 37.0994C90.3177 37.517 90.3986 38.0312 90.3986 38.642V39.0682H85.3532V38.1989H89.3759C89.3759 37.8295 89.302 37.5 89.1543 37.2102C89.0094 36.9205 88.802 36.6918 88.5322 36.5241C88.2651 36.3565 87.9498 36.2727 87.5861 36.2727C87.1856 36.2727 86.839 36.3722 86.5464 36.571C86.2566 36.767 86.0336 37.0227 85.8773 37.3381C85.7211 37.6534 85.6429 37.9915 85.6429 38.3523V38.9318C85.6429 39.4261 85.7282 39.8452 85.8986 40.1889C86.0719 40.5298 86.312 40.7898 86.6188 40.9688C86.9256 41.1449 87.2822 41.233 87.6884 41.233C87.9526 41.233 88.1912 41.196 88.4043 41.1222C88.6202 41.0455 88.8063 40.9318 88.9625 40.7812C89.1188 40.6278 89.2395 40.4375 89.3248 40.2102L90.2964 40.483C90.1941 40.8125 90.0222 41.1023 89.7807 41.3523C89.5393 41.5994 89.241 41.7926 88.8858 41.9318C88.5307 42.0682 88.1316 42.1364 87.6884 42.1364ZM92.1085 42V35.4545H93.08V36.4432H93.1482C93.2675 36.1193 93.4835 35.8565 93.796 35.6548C94.1085 35.4531 94.4607 35.3523 94.8528 35.3523C94.9266 35.3523 95.019 35.3537 95.1298 35.3565C95.2406 35.3594 95.3244 35.3636 95.3812 35.3693V36.392C95.3471 36.3835 95.269 36.3707 95.1468 36.3537C95.0275 36.3338 94.9011 36.3239 94.7675 36.3239C94.4494 36.3239 94.1653 36.3906 93.9153 36.5241C93.6681 36.6548 93.4721 36.8366 93.3272 37.0696C93.1852 37.2997 93.1141 37.5625 93.1141 37.858V42H92.1085ZM100.803 42H99.6947L102.899 33.2727H103.99L107.195 42H106.087L103.479 34.6534H103.411L100.803 42ZM101.212 38.5909H105.678V39.5284H101.212V38.5909ZM108.598 44.4545V35.4545H109.569V36.4943H109.689C109.762 36.3807 109.865 36.2358 109.995 36.0597C110.129 35.8807 110.319 35.7216 110.566 35.5824C110.816 35.4403 111.154 35.3693 111.581 35.3693C112.132 35.3693 112.618 35.5071 113.038 35.7827C113.458 36.0582 113.787 36.4489 114.022 36.9545C114.258 37.4602 114.376 38.0568 114.376 38.7443C114.376 39.4375 114.258 40.0384 114.022 40.5469C113.787 41.0526 113.46 41.4446 113.042 41.723C112.625 41.9986 112.143 42.1364 111.598 42.1364C111.177 42.1364 110.841 42.0668 110.588 41.9276C110.335 41.7855 110.14 41.625 110.004 41.446C109.868 41.2642 109.762 41.1136 109.689 40.9943H109.603V44.4545H108.598ZM109.586 38.7273C109.586 39.2216 109.659 39.6577 109.804 40.0355C109.949 40.4105 110.16 40.7045 110.439 40.9176C110.717 41.1278 111.058 41.233 111.461 41.233C111.882 41.233 112.233 41.1222 112.514 40.9006C112.798 40.6761 113.011 40.375 113.153 39.9972C113.298 39.6165 113.37 39.1932 113.37 38.7273C113.37 38.267 113.299 37.8523 113.157 37.483C113.018 37.1108 112.806 36.8168 112.522 36.6009C112.241 36.3821 111.887 36.2727 111.461 36.2727C111.052 36.2727 110.708 36.3764 110.43 36.5838C110.152 36.7884 109.941 37.0753 109.799 37.4446C109.657 37.8111 109.586 38.2386 109.586 38.7273ZM116.09 44.4545V35.4545H117.062V36.4943H117.181C117.255 36.3807 117.357 36.2358 117.488 36.0597C117.621 35.8807 117.812 35.7216 118.059 35.5824C118.309 35.4403 118.647 35.3693 119.073 35.3693C119.624 35.3693 120.11 35.5071 120.531 35.7827C120.951 36.0582 121.279 36.4489 121.515 36.9545C121.751 37.4602 121.869 38.0568 121.869 38.7443C121.869 39.4375 121.751 40.0384 121.515 40.5469C121.279 41.0526 120.952 41.4446 120.535 41.723C120.117 41.9986 119.636 42.1364 119.09 42.1364C118.67 42.1364 118.333 42.0668 118.08 41.9276C117.827 41.7855 117.633 41.625 117.496 41.446C117.36 41.2642 117.255 41.1136 117.181 40.9943H117.096V44.4545H116.09ZM117.079 38.7273C117.079 39.2216 117.151 39.6577 117.296 40.0355C117.441 40.4105 117.653 40.7045 117.931 40.9176C118.209 41.1278 118.55 41.233 118.954 41.233C119.374 41.233 119.725 41.1222 120.006 40.9006C120.29 40.6761 120.504 40.375 120.646 39.9972C120.79 39.6165 120.863 39.1932 120.863 38.7273C120.863 38.267 120.792 37.8523 120.65 37.483C120.511 37.1108 120.299 36.8168 120.015 36.6009C119.734 36.3821 119.38 36.2727 118.954 36.2727C118.545 36.2727 118.201 36.3764 117.923 36.5838C117.644 36.7884 117.434 37.0753 117.292 37.4446C117.15 37.8111 117.079 38.2386 117.079 38.7273Z" fill="#C7F9CC"/>
</svg>
